<?xml version="1.0" encoding="UTF-8" standalone="no"?>
<!-- Created with Inkscape (http://www.inkscape.org/) -->

<svg
   width="256mm"
   height="256mm"
   viewBox="0 0 256 256"
   version="1.1"
   id="svg5"
   inkscape:version="1.2 (1:1.2.1+202207142221+cd75a1ee6d)"
   sodipodi:docname="StarOS.svg"
   xmlns:inkscape="http://www.inkscape.org/namespaces/inkscape"
   xmlns:sodipodi="http://sodipodi.sourceforge.net/DTD/sodipodi-0.dtd"
   xmlns:xlink="http://www.w3.org/1999/xlink"
   xmlns="http://www.w3.org/2000/svg"
   xmlns:svg="http://www.w3.org/2000/svg">
  <sodipodi:namedview
     id="namedview7"
     pagecolor="#ffffff"
     bordercolor="#000000"
     borderopacity="0.25"
     inkscape:showpageshadow="2"
     inkscape:pageopacity="0.0"
     inkscape:pagecheckerboard="0"
     inkscape:deskcolor="#d1d1d1"
     inkscape:document-units="mm"
     showgrid="false"
     inkscape:zoom="0.68595679"
     inkscape:cx="360.8099"
     inkscape:cy="561.98875"
     inkscape:window-width="1846"
     inkscape:window-height="1016"
     inkscape:window-x="0"
     inkscape:window-y="0"
     inkscape:window-maximized="1"
     inkscape:current-layer="layer1" />
  <defs
     id="defs2">
    <linearGradient
       inkscape:collect="always"
       id="linearGradient1083">
      <stop
         style="stop-color:#2ae4ff;stop-opacity:1;"
         offset="0"
         id="stop1079" />
      <stop
         style="stop-color:#ffffff;stop-opacity:0;"
         offset="1"
         id="stop1081" />
    </linearGradient>
    <linearGradient
       inkscape:collect="always"
       xlink:href="#linearGradient1083"
       id="linearGradient1085"
       x1="60.511932"
       y1="129.92093"
       x2="138.3539"
       y2="129.92093"
       gradientUnits="userSpaceOnUse"
       gradientTransform="matrix(3.2887142,0,0,3.2887142,-199.00645,-299.27274)" />
  </defs>
  <g
     inkscape:label="图层 1"
     inkscape:groupmode="layer"
     id="layer1">
    <circle
       style="fill:url(#linearGradient1085);fill-opacity:1;stroke-width:0.870136"
       id="path269"
       cx="128"
       cy="128"
       r="128" />
    <path
       sodipodi:type="star"
       style="fill:#ffffff;fill-opacity:1;stroke-width:0.264583"
       id="path1139-6-6-8-7"
       inkscape:flatsided="false"
       sodipodi:sides="5"
       sodipodi:cx="133.65453"
       sodipodi:cy="102.67534"
       sodipodi:r1="70.267822"
       sodipodi:r2="30.339928"
       sodipodi:arg1="1.1576286"
       sodipodi:arg2="1.7430441"
       inkscape:rounded="0"
       inkscape:randomized="0"
       d="m 161.86794,167.03037 -33.4136,-34.46407 -47.286665,16.82839 22.451915,-42.4282 -30.617132,-39.772041 47.289642,8.242007 28.36424,-41.408859 6.77468,47.522039 48.1472,14.179955 -43.10265,21.128229 z"
       inkscape:transform-center-x="0.63593891"
       inkscape:transform-center-y="0.15665813"
       transform="matrix(0.07804028,-0.06149789,0.06748103,0.08563283,74.732458,185.89908)" />
    <path
       sodipodi:type="star"
       style="fill:#ffffff;fill-opacity:1;stroke-width:0.264583"
       id="path1139-6-6-8-2"
       inkscape:flatsided="false"
       sodipodi:sides="5"
       sodipodi:cx="133.65453"
       sodipodi:cy="102.67534"
       sodipodi:r1="70.267822"
       sodipodi:r2="30.339928"
       sodipodi:arg1="1.1576286"
       sodipodi:arg2="1.7430441"
       inkscape:rounded="0"
       inkscape:randomized="0"
       d="m 161.86794,167.03037 -33.4136,-34.46407 -47.286665,16.82839 22.451915,-42.4282 -30.617132,-39.772041 47.289642,8.242007 28.36424,-41.408859 6.77468,47.522039 48.1472,14.179955 -43.10265,21.128229 z"
       inkscape:transform-center-x="0.63593891"
       inkscape:transform-center-y="0.15665813"
       transform="matrix(0.07804028,-0.06149789,0.06748103,0.08563283,124.10389,134.21336)" />
    <path
       sodipodi:type="star"
       style="fill:#ffffff;fill-opacity:1;stroke-width:0.264583"
       id="path1139-6-6-8-9"
       inkscape:flatsided="false"
       sodipodi:sides="5"
       sodipodi:cx="133.65453"
       sodipodi:cy="102.67534"
       sodipodi:r1="70.267822"
       sodipodi:r2="30.339928"
       sodipodi:arg1="1.1576286"
       sodipodi:arg2="1.7430441"
       inkscape:rounded="0"
       inkscape:randomized="0"
       d="m 161.86794,167.03037 -33.4136,-34.46407 -47.286665,16.82839 22.451915,-42.4282 -30.617132,-39.772041 47.289642,8.242007 28.36424,-41.408859 6.77468,47.522039 48.1472,14.179955 -43.10265,21.128229 z"
       inkscape:transform-center-x="-0.10854918"
       inkscape:transform-center-y="-0.57823703"
       transform="matrix(0.099257,-0.00450819,0.00494679,0.10891373,130.48666,30.673208)" />
    <path
       sodipodi:type="star"
       style="fill:#ffffff;fill-opacity:1;stroke-width:0.264583"
       id="path1139-6-6-8-5"
       inkscape:flatsided="false"
       sodipodi:sides="5"
       sodipodi:cx="133.65453"
       sodipodi:cy="102.67534"
       sodipodi:r1="70.267822"
       sodipodi:r2="30.339928"
       sodipodi:arg1="1.1576286"
       sodipodi:arg2="1.7430441"
       inkscape:rounded="0"
       inkscape:randomized="0"
       d="m 161.86794,167.03037 -33.4136,-34.46407 -47.286665,16.82839 22.451915,-42.4282 -30.617132,-39.772041 47.289642,8.242007 28.36424,-41.408859 6.77468,47.522039 48.1472,14.179955 -43.10265,21.128229 z"
       inkscape:transform-center-x="0.63593891"
       inkscape:transform-center-y="0.15665813"
       transform="matrix(0.07804028,-0.06149789,0.06748103,0.08563283,53.903887,45.49908)" />
    <path
       sodipodi:type="star"
       style="fill:#ffffff;fill-opacity:1;stroke-width:0.264583"
       id="path1139-6-6-8-5-8"
       inkscape:flatsided="false"
       sodipodi:sides="5"
       sodipodi:cx="133.65453"
       sodipodi:cy="102.67534"
       sodipodi:r1="70.267822"
       sodipodi:r2="30.339928"
       sodipodi:arg1="1.1576286"
       sodipodi:arg2="1.7430441"
       inkscape:rounded="0"
       inkscape:randomized="0"
       d="m 161.86794,167.03037 -33.4136,-34.46407 -47.286665,16.82839 22.451915,-42.4282 -30.617132,-39.772041 47.289642,8.242007 28.36424,-41.408859 6.77468,47.522039 48.1472,14.179955 -43.10265,21.128229 z"
       inkscape:transform-center-x="0.63593891"
       inkscape:transform-center-y="0.15665813"
       transform="matrix(0.07804028,-0.06149789,0.06748103,0.08563283,58.532458,74.427647)" />
    <path
       sodipodi:type="star"
       style="fill:#ffffff;fill-opacity:1;stroke-width:0.264583"
       id="path1139-6-6-8-5-6"
       inkscape:flatsided="false"
       sodipodi:sides="5"
       sodipodi:cx="133.65453"
       sodipodi:cy="102.67534"
       sodipodi:r1="70.267822"
       sodipodi:r2="30.339928"
       sodipodi:arg1="1.1576286"
       sodipodi:arg2="1.7430441"
       inkscape:rounded="0"
       inkscape:randomized="0"
       d="m 161.86794,167.03037 -33.4136,-34.46407 -47.286665,16.82839 22.451915,-42.4282 -30.617132,-39.772041 47.289642,8.242007 28.36424,-41.408859 6.77468,47.522039 48.1472,14.179955 -43.10265,21.128229 z"
       inkscape:transform-center-x="0.63593891"
       inkscape:transform-center-y="0.15665813"
       transform="matrix(0.07804028,-0.06149789,0.06748103,0.08563283,141.46103,67.870504)" />
    <path
       sodipodi:type="star"
       style="fill:#ffffff;fill-opacity:1;stroke-width:0.264583"
       id="path1139-6-6-8-5-2"
       inkscape:flatsided="false"
       sodipodi:sides="5"
       sodipodi:cx="133.65453"
       sodipodi:cy="102.67534"
       sodipodi:r1="70.267822"
       sodipodi:r2="30.339928"
       sodipodi:arg1="1.1576286"
       sodipodi:arg2="1.7430441"
       inkscape:rounded="0"
       inkscape:randomized="0"
       d="m 161.86794,167.03037 -33.4136,-34.46407 -47.286665,16.82839 22.451915,-42.4282 -30.617132,-39.772041 47.289642,8.242007 28.36424,-41.408859 6.77468,47.522039 48.1472,14.179955 -43.10265,21.128229 z"
       inkscape:transform-center-x="0.63593891"
       inkscape:transform-center-y="0.15665813"
       transform="matrix(0.07804028,-0.06149789,0.06748103,0.08563283,107.51817,237.58479)" />
    <path
       sodipodi:type="star"
       style="fill:#ffffff;fill-opacity:1;stroke-width:0.264583"
       id="path1139-6-6-8-5-85"
       inkscape:flatsided="false"
       sodipodi:sides="5"
       sodipodi:cx="133.65453"
       sodipodi:cy="102.67534"
       sodipodi:r1="70.267822"
       sodipodi:r2="30.339928"
       sodipodi:arg1="1.1576286"
       sodipodi:arg2="1.7430441"
       inkscape:rounded="0"
       inkscape:randomized="0"
       d="m 161.86794,167.03037 -33.4136,-34.46407 -47.286665,16.82839 22.451915,-42.4282 -30.617132,-39.772041 47.289642,8.242007 28.36424,-41.408859 6.77468,47.522039 48.1472,14.179955 -43.10265,21.128229 z"
       inkscape:transform-center-x="0.63593891"
       inkscape:transform-center-y="0.15665813"
       transform="matrix(0.07804028,-0.06149789,0.06748103,0.08563283,54.675315,225.24193)" />
    <path
       sodipodi:type="star"
       style="fill:#ffffff;fill-opacity:1;stroke-width:0.264583"
       id="path1139-6-6-8-52"
       inkscape:flatsided="false"
       sodipodi:sides="5"
       sodipodi:cx="133.65453"
       sodipodi:cy="102.67534"
       sodipodi:r1="70.267822"
       sodipodi:r2="30.339928"
       sodipodi:arg1="1.1576286"
       sodipodi:arg2="1.7430441"
       inkscape:rounded="0"
       inkscape:randomized="0"
       d="m 161.86794,167.03037 -33.4136,-34.46407 -47.286665,16.82839 22.451915,-42.4282 -30.617132,-39.772041 47.289642,8.242007 28.36424,-41.408859 6.77468,47.522039 48.1472,14.179955 -43.10265,21.128229 z"
       inkscape:transform-center-x="0.63593891"
       inkscape:transform-center-y="0.15665813"
       transform="matrix(0.07804028,-0.06149789,0.06748103,0.08563283,40.937258,98.346456)" />
    <path
       sodipodi:type="star"
       style="fill:#ffffff;fill-opacity:1;stroke-width:0.264583"
       id="path1139-6-6-8-75"
       inkscape:flatsided="false"
       sodipodi:sides="5"
       sodipodi:cx="133.65453"
       sodipodi:cy="102.67534"
       sodipodi:r1="70.267822"
       sodipodi:r2="30.339928"
       sodipodi:arg1="1.1576286"
       sodipodi:arg2="1.7430441"
       inkscape:rounded="0"
       inkscape:randomized="0"
       d="m 161.86794,167.03037 -33.4136,-34.46407 -47.286665,16.82839 22.451915,-42.4282 -30.617132,-39.772041 47.289642,8.242007 28.36424,-41.408859 6.77468,47.522039 48.1472,14.179955 -43.10265,21.128229 z"
       inkscape:transform-center-x="0.63593891"
       inkscape:transform-center-y="0.15665813"
       transform="matrix(0.07804028,-0.06149789,0.06748103,0.08563283,24.589601,193.99908)" />
    <path
       sodipodi:type="star"
       style="fill:#ffffff;fill-opacity:1;stroke-width:0.264583"
       id="path1139-6-6-8-0"
       inkscape:flatsided="false"
       sodipodi:sides="5"
       sodipodi:cx="133.65453"
       sodipodi:cy="102.67534"
       sodipodi:r1="70.267822"
       sodipodi:r2="30.339928"
       sodipodi:arg1="1.1576286"
       sodipodi:arg2="1.7430441"
       inkscape:rounded="0"
       inkscape:randomized="0"
       d="m 161.86794,167.03037 -33.4136,-34.46407 -47.286665,16.82839 22.451915,-42.4282 -30.617132,-39.772041 47.289642,8.242007 28.36424,-41.408859 6.77468,47.522039 48.1472,14.179955 -43.10265,21.128229 z"
       inkscape:transform-center-x="0.63593891"
       inkscape:transform-center-y="0.15665813"
       transform="matrix(0.07804028,-0.06149789,0.06748103,0.08563283,137.9896,227.55622)" />
    <path
       sodipodi:type="star"
       style="fill:#ffffff;fill-opacity:1;stroke-width:0.264583"
       id="path1139-6-6-8-94"
       inkscape:flatsided="false"
       sodipodi:sides="5"
       sodipodi:cx="133.65453"
       sodipodi:cy="102.67534"
       sodipodi:r1="70.267822"
       sodipodi:r2="30.339928"
       sodipodi:arg1="1.1576286"
       sodipodi:arg2="1.7430441"
       inkscape:rounded="0"
       inkscape:randomized="0"
       d="m 161.86794,167.03037 -33.4136,-34.46407 -47.286665,16.82839 22.451915,-42.4282 -30.617132,-39.772041 47.289642,8.242007 28.36424,-41.408859 6.77468,47.522039 48.1472,14.179955 -43.10265,21.128229 z"
       inkscape:transform-center-x="0.63593891"
       inkscape:transform-center-y="0.15665813"
       transform="matrix(0.07804028,-0.06149789,0.06748103,0.08563283,138.41148,197.8743)" />
    <path
       sodipodi:type="star"
       style="fill:#ffffff;fill-opacity:1;stroke-width:0.264583"
       id="path1139-6-6-8-1"
       inkscape:flatsided="false"
       sodipodi:sides="5"
       sodipodi:cx="133.65453"
       sodipodi:cy="102.67534"
       sodipodi:r1="70.267822"
       sodipodi:r2="30.339928"
       sodipodi:arg1="1.1576286"
       sodipodi:arg2="1.7430441"
       inkscape:rounded="0"
       inkscape:randomized="0"
       d="m 161.86794,167.03037 -33.4136,-34.46407 -47.286665,16.82839 22.451915,-42.4282 -30.617132,-39.772041 47.289642,8.242007 28.36424,-41.408859 6.77468,47.522039 48.1472,14.179955 -43.10265,21.128229 z"
       inkscape:transform-center-x="-0.1369955"
       inkscape:transform-center-y="-0.0019001906"
       transform="matrix(0.09624755,0.02467153,-0.02707183,0.10561149,117.67358,92.62244)" />
    <path
       sodipodi:type="star"
       style="fill:#ffffff;fill-opacity:1;stroke-width:0.264583"
       id="path1139-6-6-8-57"
       inkscape:flatsided="false"
       sodipodi:sides="5"
       sodipodi:cx="133.65453"
       sodipodi:cy="102.67534"
       sodipodi:r1="70.267822"
       sodipodi:r2="30.339928"
       sodipodi:arg1="1.1576286"
       sodipodi:arg2="1.7430441"
       inkscape:rounded="0"
       inkscape:randomized="0"
       d="m 161.86794,167.03037 -33.4136,-34.46407 -47.286665,16.82839 22.451915,-42.4282 -30.617132,-39.772041 47.289642,8.242007 28.36424,-41.408859 6.77468,47.522039 48.1472,14.179955 -43.10265,21.128229 z"
       inkscape:transform-center-x="0.8976614"
       inkscape:transform-center-y="0.34149558"
       transform="matrix(-0.02170078,-0.09696057,0.10639388,-0.02381205,112.75478,82.647611)" />
    <path
       sodipodi:type="star"
       style="fill:#ffffff;fill-opacity:1;stroke-width:0.264583"
       id="path1139-6-6-8-59"
       inkscape:flatsided="false"
       sodipodi:sides="5"
       sodipodi:cx="133.65453"
       sodipodi:cy="102.67534"
       sodipodi:r1="70.267822"
       sodipodi:r2="30.339928"
       sodipodi:arg1="1.1576286"
       sodipodi:arg2="1.7430441"
       inkscape:rounded="0"
       inkscape:randomized="0"
       d="m 161.86794,167.03037 -33.4136,-34.46407 -47.286665,16.82839 22.451915,-42.4282 -30.617132,-39.772041 47.289642,8.242007 28.36424,-41.408859 6.77468,47.522039 48.1472,14.179955 -43.10265,21.128229 z"
       inkscape:transform-center-x="0.0048852503"
       inkscape:transform-center-y="-0.76428519"
       transform="matrix(0.05674704,0.08156009,-0.08949509,0.06226797,57.474977,97.922968)" />
    <path
       sodipodi:type="star"
       style="fill:#ffffff;fill-opacity:1;stroke-width:0.264583"
       id="path1139-6-6-8-17"
       inkscape:flatsided="false"
       sodipodi:sides="5"
       sodipodi:cx="133.65453"
       sodipodi:cy="102.67534"
       sodipodi:r1="70.267822"
       sodipodi:r2="30.339928"
       sodipodi:arg1="1.1576286"
       sodipodi:arg2="1.7430441"
       inkscape:rounded="0"
       inkscape:randomized="0"
       d="m 161.86794,167.03037 -33.4136,-34.46407 -47.286665,16.82839 22.451915,-42.4282 -30.617132,-39.772041 47.289642,8.242007 28.36424,-41.408859 6.77468,47.522039 48.1472,14.179955 -43.10265,21.128229 z"
       inkscape:transform-center-x="0.63593891"
       inkscape:transform-center-y="0.15665813"
       transform="matrix(0.07804028,-0.06149789,0.06748103,0.08563283,-5.881827,126.88479)" />
    <path
       sodipodi:type="star"
       style="fill:#ffffff;fill-opacity:1;stroke-width:0.264583"
       id="path1139-6-6-8-18"
       inkscape:flatsided="false"
       sodipodi:sides="5"
       sodipodi:cx="133.65453"
       sodipodi:cy="102.67534"
       sodipodi:r1="70.267822"
       sodipodi:r2="30.339928"
       sodipodi:arg1="1.1576286"
       sodipodi:arg2="1.7430441"
       inkscape:rounded="0"
       inkscape:randomized="0"
       d="m 161.86794,167.03037 -33.4136,-34.46407 -47.286665,16.82839 22.451915,-42.4282 -30.617132,-39.772041 47.289642,8.242007 28.36424,-41.408859 6.77468,47.522039 48.1472,14.179955 -43.10265,21.128229 z"
       inkscape:transform-center-x="0.077328213"
       inkscape:transform-center-y="-0.84828848"
       transform="matrix(0.10699654,-0.02198811,0.01357443,0.09845434,82.627651,218.90668)" />
    <path
       sodipodi:type="star"
       style="fill:#ffffff;fill-opacity:1;stroke-width:0.264583"
       id="path1139-6-6-8-55"
       inkscape:flatsided="false"
       sodipodi:sides="5"
       sodipodi:cx="133.65453"
       sodipodi:cy="102.67534"
       sodipodi:r1="70.267822"
       sodipodi:r2="30.339928"
       sodipodi:arg1="1.1576286"
       sodipodi:arg2="1.7430441"
       inkscape:rounded="0"
       inkscape:randomized="0"
       d="m 161.86794,167.03037 -33.4136,-34.46407 -47.286665,16.82839 22.451915,-42.4282 -30.617132,-39.772041 47.289642,8.242007 28.36424,-41.408859 6.77468,47.522039 48.1472,14.179955 -43.10265,21.128229 z"
       inkscape:transform-center-x="0.16797412"
       inkscape:transform-center-y="-0.77688412"
       transform="matrix(0.0982047,-0.01510337,0.01657278,0.10775905,52.265723,195.77853)" />
    <path
       sodipodi:type="star"
       style="fill:#ffffff;fill-opacity:1;stroke-width:0.264583"
       id="path1139-6-6-8-22"
       inkscape:flatsided="false"
       sodipodi:sides="5"
       sodipodi:cx="133.65453"
       sodipodi:cy="102.67534"
       sodipodi:r1="70.267822"
       sodipodi:r2="30.339928"
       sodipodi:arg1="1.1576286"
       sodipodi:arg2="1.7430441"
       inkscape:rounded="0"
       inkscape:randomized="0"
       d="m 161.86794,167.03037 -33.4136,-34.46407 -47.286665,16.82839 22.451915,-42.4282 -30.617132,-39.772041 47.289642,8.242007 28.36424,-41.408859 6.77468,47.522039 48.1472,14.179955 -43.10265,21.128229 z"
       inkscape:transform-center-x="0.63593891"
       inkscape:transform-center-y="0.15665813"
       transform="matrix(0.07804028,-0.06149789,0.06748103,0.08563283,105.97531,206.72765)" />
    <path
       sodipodi:type="star"
       style="fill:#ffffff;fill-opacity:1;stroke-width:0.264583"
       id="path1139-6-3-3"
       inkscape:flatsided="false"
       sodipodi:sides="5"
       sodipodi:cx="133.65453"
       sodipodi:cy="102.67534"
       sodipodi:r1="70.267822"
       sodipodi:r2="30.339928"
       sodipodi:arg1="1.1576286"
       sodipodi:arg2="1.7430441"
       inkscape:rounded="0"
       inkscape:randomized="0"
       d="m 161.86794,167.03037 -33.4136,-34.46407 -47.286665,16.82839 22.451915,-42.4282 -30.617132,-39.772041 47.289642,8.242007 28.36424,-41.408859 6.77468,47.522039 48.1472,14.179955 -43.10265,21.128229 z"
       inkscape:transform-center-x="-0.65265302"
       inkscape:transform-center-y="-1.2981584"
       transform="matrix(0.2876621,0,0,0.2876621,99.112408,139.8256)" />
    <path
       sodipodi:type="star"
       style="fill:#ffffff;fill-opacity:1;stroke-width:0.264583"
       id="path1139-6-3"
       inkscape:flatsided="false"
       sodipodi:sides="5"
       sodipodi:cx="133.65453"
       sodipodi:cy="102.67534"
       sodipodi:r1="70.267822"
       sodipodi:r2="30.339928"
       sodipodi:arg1="1.1576286"
       sodipodi:arg2="1.7430441"
       inkscape:rounded="0"
       inkscape:randomized="0"
       d="m 161.86794,167.03037 -33.4136,-34.46407 -47.286665,16.82839 22.451915,-42.4282 -30.617132,-39.772041 47.289642,8.242007 28.36424,-41.408859 6.77468,47.522039 48.1472,14.179955 -43.10265,21.128229 z"
       inkscape:transform-center-x="-0.65265302"
       inkscape:transform-center-y="-1.2981584"
       transform="matrix(0.2876621,0,0,0.2876621,-9.3771028,118.94716)" />
    <path
       sodipodi:type="star"
       style="fill:#ffffff;fill-opacity:1;stroke-width:0.264583"
       id="path1139-6-4"
       inkscape:flatsided="false"
       sodipodi:sides="5"
       sodipodi:cx="133.65453"
       sodipodi:cy="102.67534"
       sodipodi:r1="70.267822"
       sodipodi:r2="30.339928"
       sodipodi:arg1="1.1576286"
       sodipodi:arg2="1.7430441"
       inkscape:rounded="0"
       inkscape:randomized="0"
       d="m 161.86794,167.03037 -33.4136,-34.46407 -47.286665,16.82839 22.451915,-42.4282 -30.617132,-39.772041 47.289642,8.242007 28.36424,-41.408859 6.77468,47.522039 48.1472,14.179955 -43.10265,21.128229 z"
       inkscape:transform-center-x="-0.65265544"
       inkscape:transform-center-y="-1.2981541"
       transform="matrix(0.2876621,0,0,0.2876621,74.889148,9.820962)" />
    <path
       sodipodi:type="star"
       style="fill:#fff87f;fill-opacity:1;stroke-width:0.264583"
       id="path1139"
       inkscape:flatsided="false"
       sodipodi:sides="5"
       sodipodi:cx="133.65453"
       sodipodi:cy="102.67534"
       sodipodi:r1="70.267822"
       sodipodi:r2="30.339928"
       sodipodi:arg1="1.1576286"
       sodipodi:arg2="1.7430441"
       inkscape:rounded="0"
       inkscape:randomized="0"
       d="m 161.86794,167.03037 -33.4136,-34.46407 -47.286665,16.82839 22.451915,-42.4282 -30.617132,-39.772041 47.289642,8.242007 28.36424,-41.408859 6.77468,47.522039 48.1472,14.179955 -43.10265,21.128229 z"
       inkscape:transform-center-x="-0.97968703"
       inkscape:transform-center-y="-1.9486391"
       transform="matrix(0.43180541,0,0,0.43180541,34.34427,57.768902)" />
    <path
       sodipodi:type="star"
       style="fill:#ffffff;fill-opacity:1;stroke-width:0.264583"
       id="path1139-6-6"
       inkscape:flatsided="false"
       sodipodi:sides="5"
       sodipodi:cx="133.65453"
       sodipodi:cy="102.67534"
       sodipodi:r1="70.267822"
       sodipodi:r2="30.339928"
       sodipodi:arg1="1.1576286"
       sodipodi:arg2="1.7430441"
       inkscape:rounded="0"
       inkscape:randomized="0"
       d="m 161.86794,167.03037 -33.4136,-34.46407 -47.286665,16.82839 22.451915,-42.4282 -30.617132,-39.772041 47.289642,8.242007 28.36424,-41.408859 6.77468,47.522039 48.1472,14.179955 -43.10265,21.128229 z"
       inkscape:transform-center-x="-0.44421131"
       inkscape:transform-center-y="-0.88355692"
       transform="matrix(0.19578952,0,0,0.19578952,5.6935353,57.712319)" />
    <path
       sodipodi:type="star"
       style="fill:#ffffff;fill-opacity:1;stroke-width:0.264583"
       id="path1139-6-6-1"
       inkscape:flatsided="false"
       sodipodi:sides="5"
       sodipodi:cx="133.65453"
       sodipodi:cy="102.67534"
       sodipodi:r1="70.267822"
       sodipodi:r2="30.339928"
       sodipodi:arg1="1.1576286"
       sodipodi:arg2="1.7430441"
       inkscape:rounded="0"
       inkscape:randomized="0"
       d="m 161.86794,167.03037 -33.4136,-34.46407 -47.286665,16.82839 22.451915,-42.4282 -30.617132,-39.772041 47.289642,8.242007 28.36424,-41.408859 6.77468,47.522039 48.1472,14.179955 -43.10265,21.128229 z"
       inkscape:transform-center-x="-0.44421131"
       inkscape:transform-center-y="-0.88355692"
       transform="matrix(0.19578952,0,0,0.19578952,130.22783,83.535224)" />
    <path
       sodipodi:type="star"
       style="fill:#ffffff;fill-opacity:1;stroke-width:0.264583"
       id="path1139-6-6-8"
       inkscape:flatsided="false"
       sodipodi:sides="5"
       sodipodi:cx="133.65453"
       sodipodi:cy="102.67534"
       sodipodi:r1="70.267822"
       sodipodi:r2="30.339928"
       sodipodi:arg1="1.1576286"
       sodipodi:arg2="1.7430441"
       inkscape:rounded="0"
       inkscape:randomized="0"
       d="m 161.86794,167.03037 -33.4136,-34.46407 -47.286665,16.82839 22.451915,-42.4282 -30.617132,-39.772041 47.289642,8.242007 28.36424,-41.408859 6.77468,47.522039 48.1472,14.179955 -43.10265,21.128229 z"
       inkscape:transform-center-x="0.63593891"
       inkscape:transform-center-y="0.15665813"
       transform="matrix(0.07804028,-0.06149789,0.06748103,0.08563283,64.662916,149.59677)" />
    <path
       sodipodi:type="star"
       style="fill:#ffffff;fill-opacity:1;stroke-width:0.264583"
       id="path1139-6-6-8-97"
       inkscape:flatsided="false"
       sodipodi:sides="5"
       sodipodi:cx="133.65453"
       sodipodi:cy="102.67534"
       sodipodi:r1="70.267822"
       sodipodi:r2="30.339928"
       sodipodi:arg1="1.1576286"
       sodipodi:arg2="1.7430441"
       inkscape:rounded="0"
       inkscape:randomized="0"
       d="m 161.86794,167.03037 -33.4136,-34.46407 -47.286665,16.82839 22.451915,-42.4282 -30.617132,-39.772041 47.289642,8.242007 28.36424,-41.408859 6.77468,47.522039 48.1472,14.179955 -43.10265,21.128229 z"
       inkscape:transform-center-x="0.63593891"
       inkscape:transform-center-y="0.15665813"
       transform="matrix(0.07804028,-0.06149789,0.06748103,0.08563283,93.246744,145.01336)" />
  </g>
</svg>
